<?xml version="1.0" standalone="no"?>
<!DOCTYPE svg PUBLIC "-//W3C//DTD SVG 1.1//EN" "http://www.w3.org/Graphics/SVG/1.1/DTD/svg11.dtd" >
<svg xmlns="http://www.w3.org/2000/svg">
<metadata>
This is a custom SVG webfont generated by Font Squirrel.
Copyright   : Copyright c ShyFonts Type Foundry 2000 All rights reserved
Designer    : ShyFonts Type Foundry
Foundry URL : httpwwwshyfontscom
</metadata>
<defs>
<font id="webfonteG26Qbdz" horiz-adv-x="1110" >
<font-face units-per-em="2048" ascent="1638" descent="-410" />
<missing-glyph horiz-adv-x="669" />
<glyph unicode=" "  horiz-adv-x="669" />
<glyph unicode="&#x09;" horiz-adv-x="669" />
<glyph unicode="&#xa0;" horiz-adv-x="669" />
<glyph unicode="!" horiz-adv-x="866" d="M211 125q12 55 65.5 100t110.5 45t88 -39q33 -41 21 -94q0 -2 -11 -26l-20 -52q-16 -33 -59 -59q-40 -25 -80 -25q-59 0 -94 45.5t-21 104.5zM332 444q18 88 80 244l98 248q88 229 113 276q96 182 206 183q72 0 99 -52q25 -47 10 -116q-8 -37 -72 -170l-102 -230 q-16 -35 -182 -356q-70 -141 -158 -141q-49 0 -75.5 32.5t-16.5 81.5z" />
<glyph unicode="&#x22;" horiz-adv-x="874" d="M446 1100l19 86q45 217 147 217q43 0 66 -31q20 -29 10 -78q-29 -133 -63 -227q-33 -86 -113 -86q-91 0 -66 119zM668 1087l18 84q15 77 55 148q55 92 115 92q47 0 70 -33q23 -31 12 -78q-6 -31 -29 -106q-12 -37 -28 -107q-8 -41 -47 -73q-37 -31 -84 -31 q-43 0 -67.5 30.5t-14.5 73.5z" />
<glyph unicode="#" horiz-adv-x="1185" d="M303 770q16 76 103 107q25 8 149 28q8 23 18 74q-29 -2 -64.5 -4t-55 -3t-29.5 -1q-84 0 -66 84q16 66 109 90q25 8 145 20q12 70 15 72q33 162 129 162q72 0 71 -78q0 -16 -22 -133q8 0 38.5 2t53.5 4l2 20q31 174 148 175q66 0 71 -62q4 -37 -16 -115q92 10 115 11 q41 0 59 -31q18 -33 10 -72q-16 -68 -90 -92q-37 -12 -129 -18l-10 -54h35q152 4 127 -112q-16 -68 -84 -92q-45 -12 -127 -21q-23 -84 -41 -115q-37 -61 -101 -61q-37 0 -61.5 24.5t-16.5 61.5q4 20 19 72q-12 -2 -55 -7.5l-76 -9.5q-55 -152 -131 -151q-37 0 -58 26 q-23 29 -14 62q4 23 8 33q-55 -14 -88 -15q-49 0 -73.5 37t-16.5 82zM750 936q14 0 104 8l6 49q-8 0 -94 -8z" />
<glyph unicode="$" horiz-adv-x="1159" d="M203 270q10 45 49 76t84 31q55 0 78 -66q27 -78 61 -96q43 132 86 289q-154 72 -213 151q-72 102 -39 265q41 186 191 323q152 139 336 158q37 109 53 133q45 80 106 80q39 0 66 -33q25 -31 14 -74q-14 -53 -39 -125q137 -37 213 -129q88 -104 60 -243q-12 -55 -62 -92 q-51 -39 -104 -39q-49 0 -113 79q-92 115 -94 115l-121 -385q102 -68 152 -153q59 -109 34 -222q-27 -129 -159 -227q-119 -88 -260 -109q-29 -94 -47 -137q-43 -84 -107 -84q-39 0 -63 27q-25 29 -17 67q6 25 53 140q-96 25 -155 100q-63 82 -43 180zM600 909 q-15 -74 37 -116l88 286q-96 -47 -125 -170zM668 221q84 35 96 90q8 41 -39 92q-30 -102 -57 -182z" />
<glyph unicode="%" horiz-adv-x="1697" d="M344 1063q49 233 342 313q76 20 111 21q158 0 245 -92q98 -98 64 -250q-31 -147 -154 -252q-121 -102 -270 -103q-158 0 -260 103q-111 110 -78 260zM473 72q4 16 35 53q322 354 590 778q53 80 207 330q55 96 71 115q53 68 109 67q47 0 71 -31q25 -33 17 -77 q-4 -18 -8 -25q-180 -342 -426 -676q-289 -397 -535 -598q-33 -27 -61 -26q-37 0 -56 26q-20 31 -14 64zM573 1073q-12 -55 50 -94q52 -37 110 -37q47 0 84 31q39 33 47 74q15 68 -61 92q-6 2 -56.5 10t-74.5 14q-87 -31 -99 -90zM922 246q25 123 147 241q111 109 242 166 q37 14 55 15q22 0 61 -19q227 -109 183 -330q-31 -143 -152 -251q-125 -113 -264 -113q-129 0 -211 82q-86 84 -61 209zM1153 262q-6 -31 21 -51q29 -23 59 -23q43 0 84 39q41 37 49 80q16 74 -49 127q-150 -96 -164 -172z" />
<glyph unicode="&#x26;" horiz-adv-x="1294" d="M346 1022q39 186 248 295q170 88 375 88q160 0 262 -57q80 -45 119 -125q39 -86 18 -181q-18 -80 -72 -141q-61 -70 -137 -70q-117 0 -104 125q8 53 8 62h2q2 12 0 29q-31 57 -170 57q-61 0 -135 -19q-113 -27 -119 -57q-12 -57 82 -151l137 -123q41 -49 29 -107 q-14 -66 -84 -102l-133 -60q-70 -39 -88 -118q-15 -77 30 -136q47 -59 123 -59q59 0 160 47q104 49 125 49q33 0 51 -28q16 -25 10 -64q-6 -27 -28 -51q-59 -68 -181 -119q-104 -45 -198 -45q-162 0 -254 123q-90 121 -57 283q35 156 172 274q-234 175 -191 381z" />
<glyph unicode="'" horiz-adv-x="591" d="M426 1100l16 84q47 219 150 219q43 0 65 -31q20 -29 11 -78q-29 -145 -62 -227q-33 -86 -112 -86q-93 0 -68 119z" />
<glyph unicode="(" horiz-adv-x="720" d="M236 -147q-66 328 22 739q41 203 170 463q166 336 317 336q57 0 91 -33q35 -35 22 -90q-12 -51 -51 -105l-78 -94q-176 -223 -260 -608q-33 -164 -31 -307q2 -70 23 -297q2 -14 -2 -39q-10 -43 -47 -74q-39 -33 -76 -33q-73 1 -100 142z" />
<glyph unicode=")" horiz-adv-x="778" d="M147 -201q6 27 52 76l71 70q162 166 224 456q57 266 22 512l-37 179q-25 129 -16 170q12 51 63 94q47 39 105 39q45 0 82 -39q90 -96 98 -375q10 -238 -31 -428q-49 -231 -162 -451q-141 -266 -309 -383q-45 -29 -76 -28q-41 0 -67.5 32.5t-18.5 75.5z" />
<glyph unicode="*" horiz-adv-x="1013" d="M258 649q14 68 285 254q-61 41 -158 117q-37 35 -29 84q10 41 47 71.5t78 30.5q39 0 154 -78l27 164q23 111 129 111q88 0 94 -107q2 -37 -27 -176q106 70 146 70q43 0 63 -33q23 -37 14 -74q-12 -58 -190 -178q166 -190 151 -258q-8 -41 -47 -74q-37 -31 -77 -30 q-47 0 -150 125l-6 -29q-37 -180 -150 -180q-72 0 -84 73q-6 43 15 136l-97 -76q-68 -49 -102 -49q-43 0 -68 32q-26 37 -18 74z" />
<glyph unicode="+" horiz-adv-x="862" d="M207 621q10 45 43 71q35 29 76 29q4 0 21.5 -1l51 -3l68.5 -4l33 155q10 45 47 72q41 29 82 29q78 0 78 -101q0 -46 -25 -159q72 0 178 -9q94 -18 76 -106q-23 -109 -182 -109h-127l-9.5 -36.5t-15.5 -54.5t-16 -58q-33 -94 -119 -94q-41 0 -66 26q-25 29 -16 72l35 154 q-123 6 -152 16q-79 28 -61 111z" />
<glyph unicode="," horiz-adv-x="587" d="M123 -86q6 29 29 70q29 45 41 67l36 68q18 34 50 55q47 35 96 35q55 0 82 -39q29 -41 16 -94q-6 -29 -29 -62q-23 -29 -43 -57l-73 -109q-45 -55 -109 -55q-51 0 -79.5 37t-16.5 84z" />
<glyph unicode="-" d="M328 594q25 117 219 117h127q221 0 301 -31q72 -29 57 -98q-25 -111 -168 -111h-155q-193 0 -301 16q-98 15 -80 107z" />
<glyph unicode="." horiz-adv-x="575" d="M195 102q10 47 51 80q45 35 88 35q49 0 80 -33q29 -33 20 -80q-12 -55 -55 -94q-43 -41 -98 -41q-115 0 -86 133z" />
<glyph unicode="/" horiz-adv-x="638" d="M37 -201q47 225 205 584q213 479 247 575q35 121 60 193q41 129 78 180q55 78 127 78q47 0 75 -35q27 -33 19 -82q-23 -100 -141 -391l-160 -393q-43 -92 -215 -510q-14 -43 -30.5 -85t-27.5 -73q-45 -113 -75 -137q-35 -29 -72 -29q-115 0 -90 125z" />
<glyph unicode="0" horiz-adv-x="1382" d="M281 551q47 219 168 426q143 240 321 346q117 71 203 61q49 12 90 13q162 0 260 -148q88 -133 86 -303q0 -70 -25 -192q-68 -317 -290 -553q-236 -248 -486 -248q-117 0 -207 74q-196 159 -120 524zM545 330q25 -117 133 -117q51 0 108 29q111 58 197 221q70 131 98 270 q61 287 -69 348q-25 12 -119 29q-127 -78 -225 -256q-82 -150 -115 -311q-26 -125 -8 -213z" />
<glyph unicode="1" horiz-adv-x="774" d="M272 1077q18 88 195 211q168 117 262 117q109 0 121 -102q8 -53 -21 -195q-47 -217 -225 -741l-72 -224q-25 -102 -36 -127q-37 -70 -109 -69q-115 0 -72 207q25 119 91 374q65 249 92 375q2 10 6 32.5t8 37.5q-66 -43 -121 -43q-59 0 -96 43q-35 41 -23 104z" />
<glyph unicode="2" horiz-adv-x="1298" d="M295 115q18 76 197 229l331 283q182 170 211 301q18 80 -26.5 123t-126.5 43q-113 0 -183 -70q-25 -25 -55 -80q-37 -68 -53 -86q-61 -68 -133 -67q-74 0 -101 57q-27 55 -10 125q29 131 160 248q125 109 264 151q94 27 174 27q207 0 320 -125q117 -133 73 -336 q-45 -213 -223 -393q-77 -80 -369 -301q207 -4 269 -86q25 -35 16 -72q-10 -47 -51 -76q-43 -31 -84 -30l-39 6q-61 8 -121 8q-47 0 -149 -6q-68 -4 -152 -4q-66 0 -106 30q-49 35 -33 101z" />
<glyph unicode="3" horiz-adv-x="1220" d="M297 152q12 47 55 83.5t92 36.5q35 0 96.5 -24.5t94.5 -24.5q57 0 113 43q53 41 65 99q4 18 -10.5 27t-46.5 7h-27q-4 0 -65 -8q-46 -6 -68 -6q-66 0 -98 47q-35 51 -21 113q20 94 133 137q197 74 221 92q113 66 138 191q14 68 -15 118q-29 49 -98 50q-90 0 -174 -68 l-139 -137q-45 -41 -97 -41q-55 0 -92 37t-24 92q3 22 18 43q90 150 262 256q166 102 332 102q184 0 272 -145q83 -138 43 -326q-43 -201 -219 -354q55 -90 29 -223q-33 -160 -190 -279q-154 -117 -318 -117q-90 0 -176 43q-104 56 -86 136z" />
<glyph unicode="4" horiz-adv-x="1271" d="M174 539q2 6 10 32q84 209 115 316q45 154 57 178q49 100 146 100q137 0 90 -219q-27 -129 -64 -250q106 12 289 41l18.5 95.5t18.5 89.5q72 334 147 419q55 63 125 64q145 0 99 -211l-60 -211q-16 -59 -53 -207h39q92 0 133 -25.5t31 -78.5q-12 -57 -115 -92l-149 -29 q-63 -215 -78 -256q-51 -152 -113 -248q-45 -74 -112 -74q-114 0 -86 129q10 57 53 191q31 100 53 190q-350 -90 -487 -90q-57 0 -88 43.5t-19 102.5z" />
<glyph unicode="5" horiz-adv-x="1318" d="M236 268q12 51 57 88q46 37 98 37q55 0 101 -86q47 -88 129 -88q108 0 239 111q137 115 158 217q8 37 -20.5 59.5t-92.5 32.5q-20 4 -186 4q-197 0 -273 51q-98 68 -59 252q35 158 125 275q106 135 256 163q39 8 96 9q10 0 92 -4.5t95 -4.5q23 0 73 7q70 8 76 8 q61 0 107 -45q43 -43 28 -107q-12 -53 -63 -92q-98 -74 -275 -74q-8 0 -98 4.5t-98 4.5q-39 0 -64 -41q-35 -59 -45 -107q4 0 24.5 1t37.5 1h67q227 0 355 -76q162 -98 118 -303q-47 -217 -278 -403q-236 -188 -451 -189q-115 0 -209 66q-92 65 -116 172q-10 32 -4 57z" />
<glyph unicode="6" horiz-adv-x="1232" d="M217 369q2 39 16 112q82 387 531 770q184 156 250 156q53 0 82 -45q31 -47 18 -96q-10 -45 -67 -97l-97 -77q-82 -68 -184 -189h20q201 2 330 -127q137 -139 94 -336q-41 -182 -231 -327q-193 -145 -377 -146q-170 0 -280.5 117t-104.5 285zM539 494q-47 -221 149 -222 q102 0 201 76q92 72 108 141q16 76 -75 132q-82 47 -164 47q-100 0 -189 -76q-21 -55 -30 -98z" />
<glyph unicode="7" horiz-adv-x="1239" d="M301 106q12 65 234 345l501 628l-159.5 7.5t-176.5 7.5q-119 8 -180 32q-92 39 -69 140q27 131 235 131q45 0 541 -21q47 0 114 -8q135 -28 111 -147q-12 -58 -178 -258l-359 -420q-221 -266 -335 -434q-43 -66 -72 -95q-51 -47 -100 -47q-55 0 -86 43q-33 45 -21 96z " />
<glyph unicode="8" horiz-adv-x="1347" d="M211 375q47 213 270 352q-41 78 -20 178q14 78 63 121q70 150 254 264q186 117 338 117q145 0 225 -98q76 -94 45 -244q-37 -174 -206 -324q102 -109 65 -290q-33 -156 -151 -283q-115 -125 -275 -174q-92 -29 -196 -29q-203 0 -322 101q-133 112 -90 309zM512 373 q-16 -74 61 -115q59 -33 146 -33q92 0 176 49q92 55 111 146q29 133 -123 133q-82 0 -125 -6q-68 -12 -146 -58q-88 -55 -100 -116zM739 938q-8 -37 16.5 -55.5t80.5 -18.5q41 0 75 15q53 23 111 77q61 59 72 107q16 66 -50 65q-59 0 -157 -61q-84 -53 -142 -109z" />
<glyph unicode="9" horiz-adv-x="1234" d="M283 864q45 221 229 379q180 156 403 156q213 0 314 -150q98 -139 51 -358q-35 -160 -156 -352q-68 -104 -163 -234q-109 -147 -166 -237q-57 -92 -133 -93q-39 0 -66 27t-16 66q6 33 178 303q-53 -6 -94 -6q-215 0 -322 143q-104 141 -59 356zM582 862q-16 -78 24 -137 q39 -57 119 -57q49 0 109 22q53 18 106 39q25 63 39 123q18 88 -4 162q-31 86 -117 86q-92 0 -174 -74q-84 -74 -102 -164z" />
<glyph unicode=":" horiz-adv-x="593" d="M190 102q10 47 52 80q45 35 88 35q49 0 80 -33q31 -35 22 -80q-12 -51 -57 -94q-43 -41 -96 -41q-118 0 -89 133zM260 563q12 57 66 99q51 39 108 38q53 0 88 -34q33 -33 21 -88q-12 -53 -70 -97q-53 -39 -115 -39q-51 0 -79 35q-31 37 -19 86z" />
<glyph unicode=";" horiz-adv-x="669" d="M147 -86q6 29 29 70q29 45 41 67l37 68q18 34 49 55q47 35 98 35q55 0 82 -39q29 -41 17 -94q-4 -25 -31 -62l-43 -57l-72 -109q-46 -55 -110 -55q-51 0 -78 37q-29 39 -19 84zM369 580q8 41 49 75q39 33 86 33q53 0 88 -30.5t22 -84.5q-12 -55 -55 -88q-45 -35 -96 -34 q-52 0 -80 36q-26 36 -14 93z" />
<glyph unicode="&#x3c;" horiz-adv-x="1001" d="M172 567q8 49 72 86q72 45 186 86l193 62q246 86 251 86q41 0 70 -35t19 -78q-8 -45 -74 -82q-66 -39 -352 -137q319 -152 294 -262q-10 -49 -51 -82q-45 -35 -90 -35q-47 0 -250 127q-201 125 -239 168q-41 47 -29 96z" />
<glyph unicode="=" horiz-adv-x="1173" d="M315 408q20 98 134 116q111 18 319 19h123q102 0 146 -33t30 -98q-16 -72 -100 -93q-115 -29 -312 -28h-221q-72 0 -101.5 29t-17.5 88zM365 766q20 111 174 111h243q180 0 260 -19q94 -20 76 -110q-25 -111 -186 -111q-129 0 -359 12q-125 6 -145 13q-81 20 -63 104z " />
<glyph unicode="&#x3e;" horiz-adv-x="997" d="M291 295q25 115 407 264l-155 59q-92 39 -142 80q-41 37 -32 82q10 45 49 78t84 33q22 0 104 -37l111 -49l168 -64q102 -41 149 -82q45 -41 33 -90q-8 -47 -67.5 -92t-309.5 -168q-264 -129 -307 -129q-45 0 -74 35q-27 34 -18 80z" />
<glyph unicode="?" horiz-adv-x="1093" d="M330 119q12 57 55 90q45 37 96 37q55 0 90 -37t23 -92q-12 -57 -62 -97q-51 -41 -104 -40q-55 0 -84 40q-26 40 -14 99zM369 538.5q43 204.5 270 204.5q47 0 86 -2q78 -4 86 -4q68 0 88 94q18 82 -47 166q-63 82 -150 82q-18 0 -84 -63q-70 -66 -141 -66q-63 0 -92 41 q-27 39 -14 105q25 125 157 211q123 80 252 79q199 0 330 -172q133 -172 90 -366q-31 -152 -168 -270q-135 -117 -289 -117q-45 0 -155 35q0 -8 -1 -20.5t-2 -19.5t-1 -10q-8 -45 -54 -79q-41 -33 -90 -33q-114 0 -71 204.5z" />
<glyph unicode="@" horiz-adv-x="1679" d="M279 557q47 221 194 401q150 182 336 302q209 129 405 129q194 0 326 -136q119 -123 148 -315q12 -125 -25 -293q-84 -385 -334 -479q-61 -23 -119 -23q-190 0 -219 191q-96 -51 -176 -51q-125 0 -180 104q-49 96 -23 225q37 168 195 310q160 143 323 143q71 0 136 -43 q76 -47 59 -115q-10 -45 -53 -73q47 -29 31 -95q-18 -88 -78 -182l-2 -6q-37 -176 16 -176q96 0 145 225q61 289 -73 428q-66 70 -158 70q-182 0 -377 -189q-184 -180 -223 -362q-25 -111 29 -195q6 -10 106 -112q57 -61 45 -121q-12 -53 -51 -88q-39 -37 -90 -37 q-20 0 -39 6q-178 61 -248 209q-69 145 -26 348zM850 618q-23 -100 31 -100q33 0 108 72q72 70 90 104l33 70q23 43 45 59q-41 27 -55 27q-71 0 -154 -80q-82 -80 -98 -152z" />
<glyph unicode="A" horiz-adv-x="1130" d="M61 78q25 117 269 641q240 518 325 606q61 66 138 66q84 0 122 -60q25 -43 43 -137q4 -27 23 -164q55 -272 104 -543q6 -39 11 -59q2 -6 6 -20q8 -21 7 -40q0 -13 -3 -26l-2 -10q16 -125 16 -188q0 -32 -4 -50q-8 -43 -49 -74q-39 -31 -84 -30q-66 0 -90 78 q-10 25 -23 135q-86 -6 -165 -6q3 0 2 0q0 1 -367 12q-47 -102 -76 -141q-59 -86 -121 -86q-39 0 -63 28q-20 23 -21 50q0 9 2 18zM483 479q166 7 264 7q33 0 58 -1l-109 410z" />
<glyph unicode="B" horiz-adv-x="1214" d="M209 129q0 35 29 168q31 141 59 375q31 262 55 377q-50 31 -50 91q0 19 5 40q29 129 293 190q180 41 369 41q310 0 399 -141q39 -61 39 -134q0 -29 -6 -61q-49 -233 -383 -375q104 -75 104 -196q0 -34 -8 -72q-43 -207 -301 -346q-225 -121 -446 -121q-80 0 -101 43 q-58 11 -58 102q0 9 1 19zM451 190q381 106 407 238q1 6 1 12q0 92 -324 99zM600 823q494 143 512 228q1 5 1 9q0 56 -169 56q-108 0 -282 -37l-7 -24l-28 -119q-19 -70 -27 -113z" />
<glyph unicode="C" horiz-adv-x="1153" d="M184 643q63 289 293 512q248 244 524 244q176 0 269 -103q64 -71 64 -179q0 -45 -11 -97q-23 -100 -82 -180q-74 -98 -162 -99q-58 0 -92 43q-24 30 -24 72q0 16 4 33q8 31 26 72q25 51 29 69q2 9 2 17q0 51 -76 51q-166 0 -313 -166q-131 -150 -168 -324q-9 -44 -9 -87 q0 -90 40 -171q68 -133 200 -133q37 0 113 35q72 33 113 33q49 0 71 -35q19 -28 19 -61q0 -11 -2 -23q-14 -76 -166 -137q-129 -55 -217 -56q-248 0 -377 215q-84 143 -84 306q-1 73 16 149z" />
<glyph unicode="D" horiz-adv-x="1304" d="M207 74q16 68 84 98l63 465q35 254 52 465q-90 20 -90 97q0 16 3 34q18 90 109 133q72 37 170 37q354 0 596 -119q262 -130 262 -367q0 -50 -12 -106q-68 -317 -443 -557q-283 -182 -675 -293q-12 -4 -33 -4q-47 0 -72 35q-17 23 -17 55q0 13 3 27zM522 242 q298 98 461 264q139 139 166 268q6 27 5 51q0 221 -447 260q-25 -163 -50 -276q-31 -150 -65 -285z" />
<glyph unicode="E" horiz-adv-x="1003" d="M104 186q16 88 109 373q76 240 106 375q9 40 19 117q12 96 16 116q12 63 64 109q49 44 99 44q6 0 11 -1q186 78 535 78q161 0 161 -104q0 -16 -3 -33q-25 -113 -158 -140q-55 -12 -156 -12q-100 -2 -155 -10q-49 -6 -103 -21q-8 -70 -14 -102q-12 -66 -47 -168 q63 10 186 10q253 0 253 -116q0 -13 -3 -27q-12 -53 -55 -96q-41 -41 -97 -41q-43 0 -75 2q-66 4 -74 4q-113 0 -229 -11l-45 -134l-52 -152q295 18 457 18q49 0 70 -28q14 -21 14 -47q0 -14 -4 -31q-23 -96 -162 -127q-16 -4 -215 -21q-123 -10 -328 -45q-29 -4 -32 -4 q-105 0 -105 124q-1 43 12 101z" />
<glyph unicode="F" horiz-adv-x="1028" d="M115 86q10 49 43 170q29 109 43 170q74 344 98 571q20 164 23 174q0 2 2 10.5t4 14.5q6 15 6 25q0 2 1 6t1 8t1 8t1 6q16 70 65 107q53 41 115 41q49 0 182 -11q106 -8 185 -8q4 0 28.5 1t41 1t41 1t30.5 1q257 0 258 -126q0 -15 -4 -31q-35 -158 -311 -158 q-129 0 -367 14l-65 -266q104 14 243 14q92 0 133 -22q40 -22 40 -76q0 -19 -5 -41q-20 -106 -153 -137q-119 -27 -294 -27h-34q-41 -180 -61 -243q-45 -158 -93 -230q-45 -70 -114 -69q-45 0 -70 28q-17 19 -17 50q0 11 3 24z" />
<glyph unicode="G" horiz-adv-x="1249" d="M141 453q63 301 351 610q311 334 600 334q190 0 272 -119q47 -71 47 -177q0 -59 -14 -128q-23 -104 -76 -180q-68 -96 -164 -97q-107 0 -107 105q0 26 7 59q2 12 16 68q4 12 7 27.5t6.5 25.5l5.5 16q8 35 8 54q0 10 -2 16q-6 27 -56 27q-229 0 -493 -367 q-123 -174 -148 -291q-6 -27 -6 -51q0 -85 78 -135q82 -53 213 -53q78 0 150 14q4 31 16 84h-72q-49 0 -73 33q-19 26 -19 59q0 12 2 25q27 131 350 131q222 0 222 -106q0 -12 -2 -25q-10 -49 -46 -82q-39 -35 -84 -41q-20 -53 -34 -119l-8.5 -57.5l-8.5 -57.5 q-12 -51 -55 -92q-41 -39 -96 -39q-76 0 -97 64q-129 -31 -256 -31q-233 0 -356 129q-91 98 -91 245q-1 57 13 122z" />
<glyph unicode="H" horiz-adv-x="1236" d="M164 203q2 10 5 23.5l7 31.5q4 12 7 26.5t3 16.5q28 138 62 412q35 279 63 409q23 117 58 185q55 102 149 102q66 0 107 -45q30 -32 29 -78q0 -15 -3 -31q-8 -39 -67 -221q-51 -158 -66 -225l-35 -186q45 -6 103 -7q65 0 196 13q131 12 201 12q18 199 43 315 q92 434 285 435q63 0 100 -41q28 -30 28 -72q0 -14 -3 -29q-4 -29 -45 -123l-54 -129q-35 -96 -59 -204q-31 -158 -57 -318q-25 -150 -58 -315q-43 -199 -159 -199q-74 0 -78 82q0 41 18 141q9 65 19 197q-238 -37 -375 -37q-86 0 -162 10l-10 -55q-43 -209 -88 -276 q-41 -61 -95 -62q-85 0 -85 120q1 50 16 122z" />
<glyph unicode="I" horiz-adv-x="792" d="M154 82q20 106 192 117l103 786l5 35.5l8 55.5l9 59h-16h-8q-130 0 -129 90q0 16 4 35q23 94 139 120q101 25 239 25h138q171 0 171 -97q0 -14 -3 -30q-25 -123 -222 -135q-43 -178 -82 -363l-57.5 -233.5t-56.5 -233.5q-2 -10 -5 -26.5l-7.5 -42t-6.5 -43.5 q134 -16 134 -95q0 -11 -3 -24q-23 -109 -168 -109h-307q-39 0 -59 33q-15 24 -15 51q0 12 3 25z" />
<glyph unicode="J" horiz-adv-x="1071" d="M59 201q18 88 121 221q115 145 195 145q45 0 69 -35q19 -26 19 -57q0 -11 -2 -22q-8 -45 -88 -115q-74 -63 -84 -109q-1 -4 -1 -8q0 -27 56 -26q246 0 356 104q100 96 152 344q43 209 43 406q0 137 8 180q16 70 70 121q57 53 121 53q109 0 120 -146q1 -12 2 -29 q0 -54 -16 -202q-31 -293 -37 -319q-82 -399 -342 -596q-209 -160 -473 -160q-133 0 -215 57q-79 57 -79 146q0 22 5 47z" />
<glyph unicode="K" horiz-adv-x="1138" d="M125 27q-1 5 -1 10q0 36 15 110q37 178 84 479.5t84 479.5q63 297 238 297q68 0 94 -39q18 -27 18 -65q0 -18 -4 -39q-16 -82 -106 -392l416 363q86 76 124 104q76 55 144 56q55 0 92 -37q28 -28 28 -66q0 -13 -3 -26q-6 -31 -39 -70q-45 -59 -224 -170 q-184 -117 -391 -295q346 -466 347 -622q0 -13 -3 -23q-9 -49 -55 -80q-45 -31 -94 -31q-72 0 -156 133l-106 195q-37 63 -160 238l-8 -5q-76 -289 -92 -366q-43 -205 -162 -205q-74 0 -80 66z" />
<glyph unicode="L" horiz-adv-x="937" d="M104 86l68 295l66 297q25 109 53 297q35 221 51 297q12 55 63.5 94t110.5 39q128 0 128 -148q0 -48 -13 -110q-80 -367 -244 -928l330 17q126 6 166 6q45 0 65 -27q15 -19 15 -45q0 -11 -2 -25q-18 -90 -144 -116q-37 -8 -194 -15q-51 0 -211 -26q-145 -23 -205 -23 q-51 0 -82 35q-23 25 -23 62q0 12 2 24z" />
<glyph unicode="M" horiz-adv-x="1421" d="M100 127q23 104 76 270q66 207 84 271q18 70 51 219q8 35 31 192q18 125 31 193q12 59 65 94q57 39 115 39q127 0 176 -180q14 -43 27 -168q16 -213 55 -625q39 88 162 342l164 299q84 154 123 205q92 121 188 121q161 0 161 -153q0 -38 -10 -85q-12 -49 -47 -166 l-79 -295q-4 -14 -66 -206q-37 -111 -57 -207l-19 -101l-18 -100q-8 -45 -49 -78q-37 -31 -82 -31q-92 0 -93 106q0 44 25 157l76 391l-221 -357q-27 -51 -117 -184v-18q-6 -31 -41 -60q-33 -27 -66 -26q-104 0 -239 694q-141 -344 -180 -522q-8 -39 -9 -43q-2 -18 -8 -43 q-10 -49 -45 -78q-39 -33 -84 -33q-88 0 -87 99q-1 30 7 67z" />
<glyph unicode="N" horiz-adv-x="1214" d="M127 74l6 18q37 88 66 221q27 121 59 426q33 301 59 424q23 94 68 156q61 78 141 78q127 0 164 -144q12 -43 27 -252q12 -180 63 -413q66 -295 127 -373q49 74 82 229q49 233 74 568q10 141 16 172q14 72 66 129q55 63 127 63q105 0 105 -166q0 -81 -25 -202 q-20 -102 -26.5 -139.5t-27.5 -139.5l-41 -174q-59 -254 -114 -369q-111 -225 -291 -225q-172 0 -270 217q-37 88 -101 373q-41 -176 -78 -293q-66 -211 -127 -262q-27 -25 -65 -25q-43 0 -68 31q-19 23 -18 52q0 10 2 20z" />
<glyph unicode="O" horiz-adv-x="1267" d="M172 569q66 299 307 553q264 281 549 281q197 0 299 -154q77 -114 77 -265q0 -38 -5 -79q-6 -55 -21 -112q-68 -317 -250 -547q-219 -276 -512 -277q-248 0 -372 178q-87 122 -87 281q0 67 15 141zM442 403q18 -92 97 -147q77 -55 178 -55q147 0 262 139q96 113 131 274 q19 93 19 176q0 48 -7 93q-23 160 -106 215q-8 6 -23 6q-23 0 -84 -12q-48 -11 -70 -11h-10q-141 -80 -245 -219q-104 -141 -135 -289q-13 -56 -13 -104q0 -35 6 -66z" />
<glyph unicode="P" horiz-adv-x="1232" d="M182 86q31 133 74 279q39 131 74 278q45 209 69 426q-78 81 -78 148q0 11 3 22q16 68 241 117q166 35 289 35q258 0 412 -72q167 -80 167 -244q0 -39 -10 -82q-61 -285 -401 -458q-66 -31 -211 -93q-72 -31 -330 -131l-75 -243q-109 -63 -168 -63.5t-59 52.5q-1 13 3 29z M555 541q186 66 256 98q133 68 229.5 170t116.5 184q2 9 2 18q0 113 -348 113q-74 0 -100 -2l-11 -39q-32 -171 -145 -542z" />
<glyph unicode="Q" horiz-adv-x="1310" d="M184 674q59 270 277 485q233 231 500 232q272 0 389 -256q66 -141 65 -309q0 -98 -22 -203q-37 -176 -133 -322q-102 -158 -261 -246l-12 -153q-145 -133 -221 -133q-55 0 -68 71q-4 32 -4 74q0 29 2 61q-49 -6 -82 -6q-254 0 -372 232q-75 144 -76 308q0 80 18 165z M489 678q-20 -95 -20 -171q0 -105 39 -169q66 -109 184 -109q-1 13 -1 26q0 43 9 81q33 156 170 156q121 0 138 -164q104 104 135 250q10 47 9 95q0 107 -46 226q-74 193 -215 193q-76 0 -186 -86q-177 -138 -216 -328z" />
<glyph unicode="R" horiz-adv-x="1261" d="M152 113q31 151 104 448q86 346 106 449q0 6 2.5 13t6.5 29.5t10 59.5q-59 34 -59 96q0 15 4 33q18 82 100 125q63 33 154 33q70 0 159 -10q328 -37 478 -111q205 -100 204 -291q0 -43 -10 -90q-59 -274 -463 -453q3 -89 13 -178q10 -113 34 -172q-94 -139 -170 -139 q-53 0 -84 106q-18 96 -32 156l-47 129q-133 -33 -236 -43q-27 -86 -59 -235q-94 -57 -160 -58q-60 0 -60 62q0 18 5 41zM500 522q190 39 354 109q236 100 262 229q3 16 4 32q0 25 -10 48q-6 16 -33 37q-111 86 -395 104q-30 -121 -182 -559z" />
<glyph unicode="S" horiz-adv-x="1034" d="M139 98q18 57 56 115q49 76 94 76q14 0 41 -19q94 -61 186 -61q172 0 172 64q0 25 -125 120q-158 121 -233 215q-94 119 -95 239q0 31 7 62q47 209 290 357q223 133 439 133q125 0 198 -76q59 -59 60 -145q0 -27 -6 -58q-14 -76 -60 -123q-49 -57 -123 -57 q-125 0 -125 152q-2 0 -4 2q-76 0 -204 -56q-143 -63 -160 -129q-1 -6 -1 -12q0 -60 107 -152q205 -174 226 -194q91 -104 91 -212q0 -26 -5 -52q-31 -143 -195 -240q-143 -86 -293 -86q-203 0 -338 137z" />
<glyph unicode="T" horiz-adv-x="1112" d="M293 1253q16 74 162 95q80 12 393 38q264 23 338 23q78 0 127 -39q41 -32 41 -83q0 -17 -4 -38q-18 -92 -170 -133q-98 -27 -232 -26q-27 -117 -65 -232q-68 -215 -74 -227l-172 -590q-88 -55 -145 -55q-54 0 -55 48q0 11 3 25q6 33 16.5 78l28 117l29.5 123l29.5 122.5 l28 117t16.5 77.5q8 41 24 140q6 37 27 139q4 20 13.5 60l13.5 57q-147 -2 -324 -19q-52 89 -52 154q0 14 3 28z" />
<glyph unicode="U" horiz-adv-x="1206" d="M188 469q0 102 33 262q4 20 45 184t45 185q16 78 27 192q133 90 205 90q57 0 65 -63q2 -16 3 -37q0 -67 -23 -178q-6 -29 -60 -254q-49 -205 -59 -256q-28 -130 -28 -209q0 -41 8 -68q35 -113 217 -112q145 0 223 117q53 80 90 245q53 240 76 437q20 172 22 180 q18 82 66 141q59 72 135 72q98 0 113 -92q2 -13 2 -32q0 -46 -17 -145q-14 -70 -24.5 -130l-14.5 -83l-4 -22q-74 -344 -231 -594q-215 -338 -508 -338q-193 0 -303 164q-103 145 -103 344z" />
<glyph unicode="V" horiz-adv-x="1208" d="M301 1260l2 8q12 55 63.5 92t106.5 37q96 0 133 -144q12 -37 29 -225l55 -608l279 579q55 111 96 185q68 123 117 174q63 70 135 69q61 0 102 -41q31 -31 32 -77q0 -13 -3 -27q-25 -119 -764 -1286h-35q-27 0 -39 2q-23 -14 -49 -14q-57 0 -76 153l-10 105q-6 61 -67 413 q-10 66 -58 299l-45 148q-11 50 -11 93q0 35 7 65z" />
<glyph unicode="W" horiz-adv-x="1716" d="M315 1260q12 61 58 96q49 39 104 39q104 0 133 -148q14 -57 17 -237q10 -418 16 -582l244 637q43 109 63 147q41 74 103 127q74 57 133 58q80 0 104 -80q11 -35 11 -110q0 -20 -1 -44q0 -12 -4 -68.5t-6 -99.5q-1 -15 0 -37q0 -112 13 -401q84 229 221 526 q76 170 112 220q88 125 195 124q61 0 90 -41q22 -31 22 -69q0 -16 -4 -33q-8 -45 -90 -164q-90 -135 -241 -442q-180 -375 -269 -631q-88 -51 -202 -51q-55 0 -64 61q-3 14 -3 41.5t3 67.5q2 12 3 49t1 53q0 111 -20 242q-14 96 -39 231l-174 -368q-111 -221 -203 -363 q-76 -20 -129 -20q-45 0 -63 106q0 8 -11 146q-16 295 -100 725q-28 147 -28 230q-1 38 5 63z" />
<glyph unicode="X" horiz-adv-x="1153" d="M74 80q14 61 489 549q-173 384 -173 560q0 32 5 58q16 68 66 115q51 49 114 49q90 0 123 -139l33 -217q16 -86 51 -195q186 207 246 342q12 31 41 92q29 55 61 82q53 43 107 43q72 0 102 -53q18 -31 19 -74q0 -24 -6 -53q-51 -250 -471 -653q101 -286 184 -486 q-70 -111 -131 -110q-25 0 -47 28l-70 140q-2 2 -16.5 28.5l-49 88l-73.5 128.5l-229 -192q-123 -109 -218 -209h-24q-43 0 -86 18q-48 19 -49 50z" />
<glyph unicode="Y" horiz-adv-x="1179" d="M309 1260q12 55 60 96q45 39 102 39q72 0 115 -76q14 -23 49 -141q43 -135 135 -304q98 178 227 324q174 193 320 193q59 0 90 -37q24 -28 24 -66q0 -14 -4 -28q-14 -61 -86 -121l-110 -80q-53 -35 -111 -103q-106 -127 -229 -342l-199 -356q-84 -143 -168 -256h-32 q-51 0 -84 16q-40 19 -41 50q0 6 2 12q2 12 16 37q137 227 227 426q-80 119 -196 334q-66 121 -88 180q-26 72 -26 136q-1 35 7 67z" />
<glyph unicode="Z" horiz-adv-x="1130" d="M150 88q16 80 755 1016q-121 4 -522 8q-43 94 -43 162q0 21 4 39q23 96 158 96q37 0 141.5 -3t167.5 -3q274 -4 309 -4q229 0 229 -127q0 -17 -3 -35q-4 -23 -19 -43q-49 -80 -137 -184l-156 -176l-530 -633q31 1 61 1t54.5 0.5t46.5 1t39.5 0.5h32t25 0.5t17.5 0.5h8h4 h1q151 0 150 -85q0 -12 -3 -26q-25 -119 -254 -119h-49q-23 2 -47 2q-20 0 -176 -4t-174 -4q-47 0 -76 35q-18 22 -19 54q1 14 5 30z" />
<glyph unicode="[" horiz-adv-x="884" d="M205 -162l1 2q1 2 1 4q2 2 2 6q0 2 1 7.5t1 9.5v14q0 2 2 16.5t4 24.5l19 84q12 41 20 82q57 276 156 868q0 2 5 34t9 63l5 35.5l5 37t4 25.5l29 88v10q0 4 1 8l1 5q12 61 65.5 102t116.5 41q31 0 74 -6q68 -8 72 -8q111 -6 145 -27q63 -33 45 -123q-31 -150 -256 -149 q-8 -29 -18 -72t-27 -100q-115 -428 -182 -738l-45 -211q25 2 39 2q92 0 131 -31.5t24 -95.5q-20 -96 -131 -120q-117 -16 -188 -23q-12 -2 -31 -2q-53 0 -82 41q-30 43 -18 96z" />
<glyph unicode="\" horiz-adv-x="675" d="M317 1266q0 23 2 28q10 45 48 72q41 29 82 29q57 0 79 -68q14 -41 23 -227q18 -350 27 -551l18 -373q6 -211 -29 -379l-2 -8q-10 -43 -43 -68q-35 -27 -78 -26q-100 0 -102 180q4 170 8 651q-10 246 -33 740z" />
<glyph unicode="]" horiz-adv-x="880" d="M158 -158q27 137 254 125l41 199q31 139 84 463l39 236.5t22 131l10 56t6 39.5q-20 -2 -43 -2q-72 0 -118 36q-51 41 -35 113q16 66 69 104q55 39 119 46q29 0 84 2q2 0 20.5 3t47.5 5q29 4 69 4q63 0 98.5 -41t22.5 -105q-8 -55 -8 -59q-2 -31 -10 -57q-10 -49 -31 -113 l-33 -110l-88 -338q-35 -141 -141 -635q-10 -51 -27 -92q0 -10 -2 -19q-12 -51 -59 -96q-43 -41 -100 -41q-2 0 -27 4q-66 8 -180 20q-107 25 -84 121z" />
<glyph unicode="^" horiz-adv-x="1101" d="M225 561q2 16 27 53q82 111 252 367l139 250q111 166 205 166q70 0 115 -39q41 -37 63 -191q10 -80 21.5 -157.5l21.5 -149.5q25 -213 6 -299q-10 -45 -47 -74q-41 -31 -82 -30q-63 0 -84 69q-2 4 -18 123q-23 193 -72 332l-289 -395q-98 -129 -166 -129q-47 0 -73 30 q-28 31 -19 74z" />
<glyph unicode="_" horiz-adv-x="1153" d="M229 -35l43 205h676l-43 -205h-676z" />
<glyph unicode="`" horiz-adv-x="573" d="M485 1794q10 47 54 84q41 35 90 35q70 0 94 -78q20 -63 37 -154q22 -114 12 -153q-10 -45 -49 -78t-86 -33q-55 0 -76 49q-14 29 -49 168q-33 133 -27 160z" />
<glyph unicode="a" horiz-adv-x="1130" d="M61 78q25 117 269 641q240 518 325 606q61 66 138 66q84 0 122 -60q25 -43 43 -137q4 -27 23 -164q55 -272 104 -543q6 -39 11 -59q2 -6 6 -20q8 -21 7 -40q0 -13 -3 -26l-2 -10q16 -125 16 -188q0 -32 -4 -50q-8 -43 -49 -74q-39 -31 -84 -30q-66 0 -90 78 q-10 25 -23 135q-86 -6 -165 -6q3 0 2 0q0 1 -367 12q-47 -102 -76 -141q-59 -86 -121 -86q-39 0 -63 28q-20 23 -21 50q0 9 2 18zM483 479q166 7 264 7q33 0 58 -1l-109 410z" />
<glyph unicode="b" horiz-adv-x="1216" d="M209 129q0 35 29 168q31 141 59 375q31 262 55 377q-50 31 -50 91q0 19 5 40q29 129 293 190q180 41 369 41q310 0 399 -141q39 -61 39 -134q0 -29 -6 -61q-49 -233 -383 -375q104 -75 104 -196q0 -34 -8 -72q-43 -207 -301 -346q-225 -121 -446 -121q-80 0 -101 43 q-58 11 -58 102q0 9 1 19zM451 190q381 106 407 238q1 6 1 12q0 92 -324 99zM600 823q494 143 512 228q1 5 1 9q0 56 -169 56q-108 0 -282 -37l-7 -24l-28 -119q-19 -70 -27 -113z" />
<glyph unicode="c" horiz-adv-x="1155" d="M184 643q63 289 293 512q248 244 524 244q176 0 269 -103q64 -71 64 -179q0 -45 -11 -97q-23 -100 -82 -180q-74 -98 -162 -99q-58 0 -92 43q-24 30 -24 72q0 16 4 33q8 31 26 72q25 51 29 69q2 9 2 17q0 51 -76 51q-166 0 -313 -166q-131 -150 -168 -324q-9 -44 -9 -86 q0 -91 42 -172q66 -133 198 -133q37 0 113 35q72 33 113 33q49 0 71 -35q19 -28 19 -61q0 -11 -2 -23q-14 -76 -166 -137q-129 -55 -217 -56q-248 0 -377 215q-84 143 -84 306q-1 73 16 149z" />
<glyph unicode="d" horiz-adv-x="1308" d="M209 74q16 68 84 98l63 465q37 272 50 465q-88 20 -88 96q0 16 4 35q18 90 106 133q72 37 170 37q356 0 598 -119q260 -129 260 -366q0 -51 -12 -107q-68 -315 -440 -557q-283 -182 -676 -293q-12 -4 -33 -4q-47 0 -72 35q-17 23 -17 55q0 13 3 27zM524 242 q293 96 461 264q139 139 166 268q6 27 6 51q0 221 -448 260q-25 -163 -50 -276q-20 -94 -67 -285q-50 -200 -68 -282z" />
<glyph unicode="e" horiz-adv-x="1007" d="M106 186q20 104 107 373q84 258 109 375q9 40 18 117q12 96 16 116q12 63 64 109q49 44 99 44q6 0 11 -1q184 78 535 78q161 0 161 -104q0 -16 -3 -33q-25 -113 -158 -140q-57 -12 -156 -12q-100 -2 -155 -10q-49 -6 -103 -21q-4 -45 -16 -102q-16 -82 -45 -168 q63 10 186 10q251 0 251 -116q0 -13 -3 -27q-12 -55 -53 -96t-99 -41q-41 0 -73 2q-66 4 -74 4q-111 0 -229 -11l-99 -286q295 18 457 18q51 0 72 -28q14 -21 14 -47q0 -14 -4 -31q-23 -96 -162 -127q-16 -4 -217 -21q-125 -10 -326 -45q-29 -4 -32 -4q-105 0 -105 124 q-1 43 12 101z" />
<glyph unicode="f" horiz-adv-x="1028" d="M115 86q10 49 43 170q29 109 43 170q74 344 98 571q20 164 23 174q0 2 2 10.5t4 14.5q6 15 6 25q0 2 1 6t1 8t1 8t1 6q16 70 65 107q53 41 115 41q49 0 182 -11q106 -8 185 -8q4 0 28.5 1t41 1t41 1t30.5 1q257 0 258 -126q0 -15 -4 -31q-35 -158 -311 -158 q-129 0 -367 14l-65 -266q104 14 243 14q92 0 133 -22q40 -22 40 -76q0 -19 -5 -41q-20 -106 -153 -137q-119 -27 -294 -27h-34q-41 -180 -61 -243q-45 -158 -93 -230q-45 -70 -114 -69q-45 0 -70 28q-17 19 -17 50q0 11 3 24z" />
<glyph unicode="g" horiz-adv-x="1249" d="M141 453q63 301 351 610q311 334 600 334q190 0 272 -119q47 -71 47 -177q0 -59 -14 -128q-23 -104 -76 -180q-68 -96 -164 -97q-107 0 -107 105q0 26 7 59q2 12 16 68q4 12 7 27.5t6.5 25.5l5.5 16q8 35 8 54q0 10 -2 16q-6 27 -56 27q-229 0 -493 -367 q-123 -174 -148 -291q-6 -27 -6 -51q0 -85 78 -135q82 -53 213 -53q78 0 150 14q4 31 16 84h-72q-49 0 -73 33q-19 26 -19 59q0 12 2 25q27 131 350 131q222 0 222 -106q0 -12 -2 -25q-10 -49 -46 -82q-39 -35 -84 -41q-20 -53 -34 -119l-8.5 -57.5l-8.5 -57.5 q-12 -51 -55 -92q-41 -39 -96 -39q-76 0 -97 64q-129 -31 -256 -31q-237 0 -356 129q-91 98 -91 245q-1 57 13 122z" />
<glyph unicode="h" horiz-adv-x="1236" d="M164 203q2 10 5 23.5l7 31.5q4 12 7 26.5t3 16.5q28 138 62 412q35 279 63 409q23 117 58 185q55 102 149 102q66 0 107 -45q30 -32 29 -78q0 -15 -3 -31q-8 -39 -67 -221q-51 -158 -66 -225l-35 -186q45 -6 103 -7q65 0 196 13q131 12 201 12q18 199 43 315 q92 434 285 435q63 0 100 -41q28 -30 28 -72q0 -14 -3 -29q-4 -29 -45 -123l-54 -129q-35 -96 -59 -204q-31 -158 -57 -318q-25 -150 -58 -315q-43 -199 -159 -199q-74 0 -78 82q0 41 18 141q9 65 19 197q-238 -37 -375 -37q-86 0 -162 10l-10 -55q-43 -209 -88 -276 q-41 -61 -95 -62q-85 0 -85 120q1 50 16 122z" />
<glyph unicode="i" horiz-adv-x="436" d="M113 68q20 84 61 231q55 195 62 229q68 317 69 482q6 203 12 239q33 162 166 162q121 0 135 -145q1 -13 2 -29q0 -83 -28 -219l-11.5 -56.5l-9.5 -47t-6 -25.5q-31 -141 -84 -309q-76 -256 -88 -308q-45 -178 -51 -192q-53 -119 -149 -119q-45 0 -66 31q-17 24 -17 53 q1 11 3 23z" />
<glyph unicode="j" horiz-adv-x="1071" d="M59 201q18 88 121 221q115 145 195 145q45 0 69 -35q19 -26 19 -57q0 -11 -2 -22q-8 -45 -88 -115q-74 -63 -84 -109q-1 -4 -1 -8q0 -27 56 -26q246 0 356 104q100 96 152 344q43 209 43 406q0 137 8 180q16 70 70 121q57 53 121 53q109 0 120 -146q1 -12 2 -29 q0 -54 -16 -202q-31 -293 -37 -319q-82 -399 -342 -596q-209 -160 -473 -160q-133 0 -215 57q-79 57 -79 146q0 22 5 47z" />
<glyph unicode="k" horiz-adv-x="1142" d="M125 27q-1 5 -1 10q0 36 15 110q45 213 86 480q51 338 82 479q63 297 240 297q66 0 92 -39q20 -29 20 -69q0 -17 -4 -35q-8 -45 -106 -392l416 363q94 86 125 104q77 55 141 56q57 0 94 -37q28 -28 28 -66q0 -13 -3 -26q-6 -31 -39 -70q-45 -59 -224 -170 q-184 -117 -391 -295q344 -463 345 -621q0 -13 -3 -24q-9 -49 -55 -80q-45 -31 -92 -31q-72 0 -156 133q-88 160 -106 195q-37 63 -160 238l-10 -5q-63 -242 -90 -366q-43 -205 -164 -205q-74 0 -80 66z" />
<glyph unicode="l" horiz-adv-x="937" d="M104 86l68 295l66 297q25 109 53 297q35 221 51 297q12 55 63.5 94t110.5 39q128 0 128 -148q0 -48 -13 -110q-80 -367 -244 -928l330 17q126 6 166 6q45 0 65 -27q15 -19 15 -45q0 -11 -2 -25q-18 -90 -144 -116q-37 -8 -194 -15q-51 0 -211 -26q-145 -23 -205 -23 q-51 0 -82 35q-23 25 -23 62q0 12 2 24z" />
<glyph unicode="m" horiz-adv-x="1421" d="M100 127q23 104 76 270q66 207 84 271q18 70 51 219q8 35 31 192q18 125 31 193q12 59 65 94q57 39 115 39q127 0 176 -180q16 -70 27 -168q16 -213 55 -625q39 88 162 342l164 299q84 154 123 205q92 121 188 121q161 0 161 -153q0 -38 -10 -85q-12 -49 -47 -166 l-79 -295q-4 -14 -66 -206q-37 -111 -57 -207l-19 -101l-18 -100q-8 -45 -49 -78q-37 -31 -82 -31q-92 0 -93 106q0 44 25 157l76 391l-221 -357q-27 -51 -117 -184v-18q-6 -31 -41 -60q-33 -27 -66 -26q-104 0 -239 694q-141 -344 -180 -522q-8 -39 -9 -43q-2 -18 -8 -43 q-10 -49 -45 -78q-39 -33 -84 -33q-88 0 -87 99q-1 30 7 67z" />
<glyph unicode="n" horiz-adv-x="1214" d="M127 74l6 18q37 88 66 221q27 121 59 426q33 301 59 424q23 94 68 156q61 78 141 78q127 0 164 -144q12 -43 27 -252q12 -180 63 -413q66 -295 127 -373q49 74 82 229q49 233 74 568q10 141 16 172q14 72 66 129q55 63 127 63q105 0 105 -166q0 -81 -25 -202 q-20 -102 -26.5 -139.5t-27.5 -139.5l-41 -174q-59 -254 -114 -369q-111 -225 -291 -225q-172 0 -270 217q-37 88 -101 373q-41 -176 -78 -293q-66 -211 -127 -262q-27 -25 -65 -25q-43 0 -68 31q-19 23 -18 52q0 10 2 20z" />
<glyph unicode="o" horiz-adv-x="1267" d="M172 569q66 299 307 553q264 281 549 281q197 0 299 -154q77 -114 77 -265q0 -38 -5 -79q-6 -55 -21 -112q-68 -317 -250 -547q-219 -276 -512 -277q-248 0 -372 178q-87 122 -87 281q0 67 15 141zM442 403q18 -92 97 -147q77 -55 178 -55q147 0 262 139q96 113 131 274 q19 93 19 176q0 48 -7 93q-23 160 -106 215q-8 6 -23 6q-23 0 -84 -12q-48 -11 -70 -11h-10q-141 -80 -245 -219q-104 -141 -135 -289q-13 -56 -13 -104q0 -35 6 -66z" />
<glyph unicode="p" horiz-adv-x="1230" d="M180 86q31 133 74 279q39 131 74 278q37 176 69 426q-78 81 -78 148q0 11 3 22q16 68 241 117q166 35 289 35q258 0 412 -72q169 -80 169 -244q0 -39 -10 -82q-61 -283 -403 -458q-66 -31 -211 -93q-53 -23 -328 -131l-78 -243q-109 -63 -165 -64q-61 0 -61 54q0 13 3 28 zM553 541q194 68 258 98q129 66 227 170q96 102 117 184q2 9 2 18q0 113 -348 113q-74 0 -100 -2l-11 -39q-32 -171 -145 -542z" />
<glyph unicode="q" horiz-adv-x="1310" d="M184 674q59 270 277 485q233 231 500 232q272 0 389 -256q66 -141 65 -309q0 -98 -22 -203q-37 -176 -133 -322q-102 -158 -261 -246l-12 -153q-145 -133 -221 -133q-55 0 -68 71q-4 32 -4 74q0 29 2 61q-49 -6 -82 -6q-254 0 -372 232q-75 144 -76 308q0 80 18 165z M489 678q-20 -95 -20 -171q0 -105 39 -169q66 -109 184 -109q-1 13 -1 26q0 43 9 81q33 156 170 156q121 0 138 -164q104 104 135 250q10 47 9 95q0 107 -46 226q-74 193 -215 193q-76 0 -186 -86q-177 -138 -216 -328z" />
<glyph unicode="r" horiz-adv-x="1261" d="M152 113q31 151 104 448q86 346 106 449q0 6 2.5 13t6.5 29.5t10 59.5q-59 34 -59 96q0 15 4 33q18 82 100 125q63 33 154 33q70 0 159 -10q328 -37 478 -111q205 -100 204 -291q0 -43 -10 -90q-59 -274 -463 -453q3 -89 13 -178q10 -113 34 -172q-94 -139 -170 -139 q-53 0 -84 106q-18 96 -32 156l-47 129q-133 -33 -236 -43q-27 -86 -59 -235q-94 -57 -160 -58q-60 0 -60 62q0 18 5 41zM500 522q190 39 354 109q236 100 262 229q3 16 4 32q0 25 -10 48q-6 16 -33 37q-111 86 -395 104q-30 -121 -182 -559z" />
<glyph unicode="s" horiz-adv-x="1034" d="M139 98q18 57 56 115q49 76 94 76q14 0 41 -19q94 -61 186 -61q172 0 172 64q0 25 -125 120q-158 121 -233 215q-94 119 -95 239q0 31 7 62q47 209 290 357q223 133 439 133q125 0 198 -76q59 -59 60 -145q0 -27 -6 -58q-14 -76 -60 -123q-49 -57 -123 -57 q-125 0 -125 152q-2 0 -4 2q-76 0 -204 -56q-143 -63 -160 -129q-1 -6 -1 -12q0 -60 107 -152q205 -174 226 -194q91 -104 91 -212q0 -26 -5 -52q-31 -143 -195 -240q-143 -86 -293 -86q-203 0 -338 137z" />
<glyph unicode="t" horiz-adv-x="1112" d="M293 1253q16 74 162 95q80 12 393 38q264 23 338 23q78 0 127 -39q41 -32 41 -83q0 -17 -4 -38q-18 -92 -170 -133q-98 -27 -232 -26q-27 -117 -65 -232q-68 -215 -74 -227l-172 -590q-88 -55 -145 -55q-54 0 -55 48q0 11 3 25q6 33 16.5 78l28 117l29.5 123l29.5 122.5 l28 117t16.5 77.5q8 41 24 140q6 37 27 139q4 20 13.5 60l13.5 57q-147 -2 -324 -19q-52 89 -52 154q0 14 3 28z" />
<glyph unicode="u" horiz-adv-x="1206" d="M188 469q0 102 33 262q4 20 45 184t45 185q16 78 27 192q133 90 205 90q57 0 65 -63q2 -16 3 -37q0 -67 -23 -178q-6 -29 -60 -254q-49 -205 -59 -256q-28 -130 -28 -209q0 -41 8 -68q35 -113 217 -112q145 0 223 117q53 80 90 245q53 240 76 437q20 172 22 180 q18 82 66 141q59 72 135 72q98 0 113 -92q2 -13 2 -32q0 -46 -17 -145q-14 -70 -24.5 -130l-14.5 -83l-4 -22q-74 -344 -231 -594q-215 -338 -508 -338q-193 0 -303 164q-99 141 -103 344z" />
<glyph unicode="v" horiz-adv-x="1208" d="M301 1260l2 8q12 55 63.5 92t106.5 37q96 0 133 -144q12 -37 29 -225q22 -203 55 -608l279 579q55 111 96 185q68 123 117 174q63 70 135 69q61 0 102 -41q31 -31 32 -77q0 -13 -3 -27q-25 -119 -764 -1286h-35q-27 0 -39 2q-23 -14 -49 -14q-57 0 -76 153l-10 105 q-6 61 -67 413q-10 66 -58 299l-45 148q-11 50 -11 93q0 35 7 65z" />
<glyph unicode="w" horiz-adv-x="1716" d="M315 1260q12 61 58 96q49 39 104 39q104 0 133 -148q14 -57 17 -237q0 -166 16 -582l244 637q43 109 63 147q41 74 103 127q74 57 133 58q80 0 104 -80q11 -35 11 -110q0 -20 -1 -44q0 -12 -4 -68.5t-6 -99.5q-1 -15 0 -37q0 -112 13 -401q84 229 221 526q76 170 112 220 q88 125 195 124q61 0 90 -41q22 -31 22 -69q0 -16 -4 -33q-8 -45 -90 -164q-90 -135 -241 -442q-180 -375 -269 -631q-88 -51 -202 -51q-55 0 -64 61q-3 14 -3 41.5t3 67.5q2 12 3 49t1 53q0 111 -20 242q-14 96 -39 231l-174 -368q-111 -221 -203 -363q-76 -20 -129 -20 q-45 0 -63 106q0 8 -11 146q-16 295 -100 725q-28 147 -28 230q-1 38 5 63z" />
<glyph unicode="x" horiz-adv-x="1153" d="M74 80q14 61 489 549q-173 384 -173 560q0 32 5 58q16 68 66 115q51 49 114 49q90 0 123 -139l33 -217q16 -86 51 -195q186 207 246 342q12 31 41 92q29 55 61 82q53 43 107 43q72 0 102 -53q18 -31 19 -74q0 -24 -6 -53q-51 -250 -471 -653q104 -286 184 -486 q-74 -111 -131 -110q-25 0 -47 28l-70 140q-2 2 -16.5 28.5l-49 88l-73.5 128.5l-229 -192q-123 -109 -218 -209h-24q-43 0 -86 18q-48 19 -49 50z" />
<glyph unicode="y" horiz-adv-x="1179" d="M309 1260q12 55 60 96q45 39 102 39q72 0 115 -76q14 -23 49 -141q43 -135 135 -304q98 178 227 324q174 193 320 193q59 0 90 -37q24 -28 24 -66q0 -14 -4 -28q-14 -61 -86 -121l-110 -80q-53 -35 -111 -103q-106 -127 -229 -342l-199 -356q-84 -143 -168 -256h-32 q-51 0 -84 16q-40 19 -41 50q0 6 2 12q2 12 16 37q137 227 227 426q-80 119 -196 334q-66 121 -88 180q-26 72 -26 136q-1 35 7 67z" />
<glyph unicode="z" horiz-adv-x="1130" d="M150 88q16 80 755 1016q-121 4 -522 8q-43 94 -43 162q0 21 4 39q23 96 158 96q37 0 141.5 -3t167.5 -3q274 -4 309 -4q229 0 229 -127q0 -17 -3 -35q-4 -23 -19 -43q-49 -80 -137 -184l-156 -176l-530 -633q31 1 61 1t54.5 0.5t46.5 1t39.5 0.5h32t25 0.5t17.5 0.5h8h4 h1q151 0 150 -85q0 -12 -3 -26q-25 -119 -254 -119h-49q-23 2 -47 2q-20 0 -176 -4t-174 -4q-47 0 -76 35q-18 22 -19 54q1 14 5 30z" />
<glyph unicode="{" horiz-adv-x="864" d="M186 522q12 59 54 84q31 14 96 33q45 16 53 63q12 49 19 146q4 72 18 145q37 168 143 273q137 133 289 133q68 0 107 -37t26 -100q-10 -51 -55 -97q-47 -47 -107 -61q-78 -20 -86 -27q-39 -29 -57 -116q-6 -23 -16 -119q-8 -78 -19 -119q-25 -121 -90 -199 q47 -80 19 -213q-10 -53 -60 -180q-53 -139 -61 -178q-6 -31 0 -37q20 -4 35 -8q98 -29 77 -119q-8 -43 -47 -76q-37 -31 -86 -30q-131 0 -190.5 73.5t-30.5 204.5q10 49 59 166q47 113 60 168q10 49 -4 65q-8 10 -60 27q-108 37 -86 135z" />
<glyph unicode="|" horiz-adv-x="655" d="M160 -182q2 10 8 45t12 57l25 103q135 633 170 925q0 4 2 19.5t4 52.5t4 70q10 88 21 139q37 174 155 174q169 0 105 -307l-136 -637l-71 -314q-57 -244 -72 -313q-37 -176 -151 -176q-109 0 -76 162z" />
<glyph unicode="}" horiz-adv-x="841" d="M172 -215q14 63 57 88q27 8 52.5 17.5t44.5 15.5q27 10 32 39q14 72 17 184q4 127 14 186q27 129 119 211q-27 78 0 203q23 88 45 150q31 82 47 147q8 41 2 70q-52 12 -123 30q-88 29 -65 127q14 70 84 111q59 35 133 35q139 0 206.5 -98.5t36.5 -241.5q-14 -61 -61 -187 q-47 -129 -61 -184q-10 -43 28 -55l70 -25q33 -25 20 -88q-20 -98 -141 -135q-51 -16 -74 -27q-20 -14 -32 -65q-12 -58 -13 -172q0 -113 -12 -170q-29 -129 -119 -201q-92 -74 -219 -74q-47 0 -71.5 31t-16.5 78z" />
<glyph unicode="~" horiz-adv-x="1413" d="M360 866q6 27 25 54q52 86 147 153q94 68 183 68q61 0 196 -70q162 -86 238 -86q10 0 29 41q23 53 47 80q37 41 92 41t88 -45q31 -43 18 -103q-20 -106 -118 -184q-94 -76 -203 -76q-98 0 -256 84q-156 82 -187 82q-23 0 -88 -71q-63 -70 -122 -70q-45 0 -72 28.5 t-17 73.5z" />
<glyph unicode="&#xa2;" horiz-adv-x="1028" d="M242 680q37 176 194.5 325.5t341.5 182.5q37 92 64 135q51 82 114 82q39 0 64 -29q25 -27 14 -67q-9 -43 -55 -135q76 -35 108 -111q33 -72 13 -170q-18 -82 -60 -131q-49 -66 -122 -66q-115 0 -115 99l-172 -363q14 -2 47 -2q23 0 88 14q55 12 78 13q40 0 61 -31 q23 -31 13 -74q-12 -59 -146 -102q-109 -37 -182 -37q-34 0 -74 6q-51 -96 -123 -96q-33 0 -55 22t-12 56q6 27 39 80q-86 61 -117 170q-31 110 -6 229zM481 653q-14 -59 17 -123l141 326q-133 -82 -158 -203z" />
<glyph unicode="&#xa3;" horiz-adv-x="1280" d="M227 539q25 113 197 123q35 219 45 268q43 201 162 332q131 147 327 147q164 0 273 -104q104 -102 110 -267q0 -25 -2 -32q-12 -63 -67 -109q-53 -45 -121 -45t-92 68l-35 124q-25 68 -102 68q-16 0 -37 -6q-51 -16 -72 -47q-12 -14 -33 -80q-18 -57 -78 -299q35 2 144 2 q102 0 147 -28.5t33 -86.5q-25 -119 -172 -118q-27 0 -45 2q-37 4 -45 4q-78 0 -115 -2l-8 -33q-14 -63 -41 -219q80 -12 375 -13q111 0 88 -108q-16 -68 -90 -92q-80 -27 -242 -27q-268 0 -328 25q-63 29 -61 108q2 68 47 346q-65 -6 -86 -6q-41 0 -63 31t-13 74z" />
<glyph unicode="&#xa5;" horiz-adv-x="1359" d="M229 254q25 119 220 119l184 -4l12 26l-16 56q-6 0 -125 -5q-53 -2 -127 -2q-45 0 -65.5 27t-12.5 70q18 82 115 102q41 10 155 10q-154 588 -143 635q8 43 51 80q41 35 86 35q53 0 80 -64q10 -31 29 -108l137 -531l217 322q80 141 209 332q49 61 100 61t82 -39 q33 -41 21 -92q-10 -49 -131 -248q-9 -18 -258 -381q6 0 20 1t42 2t54 1h117q45 0 66 -26q23 -29 14 -68q-25 -119 -266 -119q-53 0 -88 3q-45 2 -86 2q-25 -47 -43 -86h67q129 0 187.5 -34t44.5 -102q-10 -43 -48 -71q-41 -31 -79 -31q-6 0 -37 1l-92.5 3l-128.5 4 q-45 -180 -164 -180q-74 0 -86 59q-8 43 12 125h-156q-195 0 -170 115z" />
<glyph unicode="&#xa9;" horiz-adv-x="1937" d="M274 580q68 315 396 553q283 207 628 258q51 8 111 8q289 0 432 -187q145 -188 84 -473q-20 -90 -47 -155q-123 -299 -389 -467q-252 -160 -567 -160q-305 0 -496 154q-213 174 -152 469zM557 573q-43 -199 148 -301q150 -78 370 -77q219 0 379 110q172 119 219 334 q39 186 -43 317q-88 139 -268 138h-6q84 -25 129 -101q43 -74 20 -170q-16 -78 -75 -141q-63 -70 -140 -70q-70 0 -96 56q-29 57 -8 125q-53 -18 -90 -80q-35 -51 -47 -107q-8 -45 10 -92q23 -55 61 -55q10 0 49 16.5t62 16.5q45 0 73.5 -35t18.5 -82q-14 -63 -119 -113 q-89 -43 -160 -43q-154 0 -237 133q-80 125 -45 287q27 135 135 262q104 123 244 176l-13 4q-207 -70 -354 -186q-180 -144 -217 -322z" />
<glyph unicode="&#xad;" d="M328 594q25 117 219 117h127q221 0 301 -31q72 -29 57 -98q-25 -111 -168 -111h-155q-193 0 -301 16q-98 15 -80 107z" />
<glyph unicode="&#xae;" horiz-adv-x="2043" d="M281 592q68 326 417 559q305 203 658 254q78 10 127 10q299 0 454 -186q158 -188 95 -486q-20 -109 -90 -231q-152 -272 -418 -412q-244 -127 -547 -127q-317 0 -524 146q-237 172 -172 473zM555 586q-49 -240 276 -334q-37 49 -6 197l19 79l18 80q12 47 23 117 q16 100 20 117q-27 43 -14 92q10 41 12 45q-299 -164 -348 -393zM930 227q102 -18 211 -18q29 0 49 2q-43 20 -72 86l-43 109l-20 -3q-39 -153 -125 -176zM1141 635q150 43 162 92q4 20 -24 30.5t-85 14.5q-26 -74 -53 -137zM1167 1092q78 -6 181 -29q297 -80 247 -303 q-34 -157 -245 -264q-4 -53 8 -113q8 -41 2 -72q-12 -61 -72 -92q186 33 316 141q143 121 178 293q43 205 -62 328q-106 125 -311 125q-31 0 -92 -6q-82 -8 -92 -8q-20 0 -41 4z" />
<glyph unicode="&#xb4;" horiz-adv-x="577" d="M424 1524q10 43 115 180q108 141 147 172q37 29 76 29q45 0 72 -31q29 -33 20 -76q-8 -37 -106 -172q-98 -127 -140 -166q-47 -43 -96 -43q-45 0 -72 31q-26 29 -16 76z" />
<glyph unicode="&#x2000;" horiz-adv-x="954" />
<glyph unicode="&#x2001;" horiz-adv-x="1912" />
<glyph unicode="&#x2002;" horiz-adv-x="954" />
<glyph unicode="&#x2003;" horiz-adv-x="1912" />
<glyph unicode="&#x2004;" horiz-adv-x="636" />
<glyph unicode="&#x2005;" horiz-adv-x="477" />
<glyph unicode="&#x2006;" horiz-adv-x="317" />
<glyph unicode="&#x2007;" horiz-adv-x="317" />
<glyph unicode="&#x2008;" horiz-adv-x="237" />
<glyph unicode="&#x2009;" horiz-adv-x="380" />
<glyph unicode="&#x200a;" horiz-adv-x="104" />
<glyph unicode="&#x2010;" d="M328 594q25 117 219 117h127q221 0 301 -31q72 -29 57 -98q-25 -111 -168 -111h-155q-193 0 -301 16q-98 15 -80 107z" />
<glyph unicode="&#x2011;" d="M328 594q25 117 219 117h127q221 0 301 -31q72 -29 57 -98q-25 -111 -168 -111h-155q-193 0 -301 16q-98 15 -80 107z" />
<glyph unicode="&#x2012;" d="M328 594q25 117 219 117h127q221 0 301 -31q72 -29 57 -98q-25 -111 -168 -111h-155q-193 0 -301 16q-98 15 -80 107z" />
<glyph unicode="&#x2013;" horiz-adv-x="923" d="M326 594q8 49 47 80q37 31 86 31q10 0 38.5 -1.5t84 -2.5t108.5 -1q92 0 119 -10q55 -23 41 -92q-23 -111 -168 -111q-57 0 -102 -2q-90 -4 -103 -4q-88 0 -125.5 28t-25.5 85z" />
<glyph unicode="&#x2014;" horiz-adv-x="1372" d="M334 594q25 117 194 117q143 0 490 -13h57q242 0 217 -116q-25 -111 -166 -111q-166 0 -299 2t-299 2q-111 0 -158.5 30t-35.5 89z" />
<glyph unicode="&#x2018;" horiz-adv-x="542" d="M381 1292q10 45 49 76q41 31 84 31q51 0 76 -51q12 -25 35 -138q20 -111 14 -141q-10 -43 -45 -70q-39 -29 -80 -28q-46 0 -68 49q-16 29 -43 137q-28 115 -22 135z" />
<glyph unicode="&#x2019;" horiz-adv-x="557" d="M336 1092q6 27 29 51l178 203q39 45 98 45q41 0 68 -27q28 -28 18 -68q-10 -37 -94 -137q-74 -90 -121 -131q-49 -43 -94 -43q-43 0 -67.5 31t-14.5 76z" />
<glyph unicode="&#x201c;" horiz-adv-x="880" d="M432 1292q10 45 49 76t84 31q49 0 74 -51q16 -31 37 -138q20 -111 14 -141q-10 -43 -45 -70q-39 -29 -80 -28q-46 0 -67 49q-16 29 -43 137q-29 115 -23 135zM674 1294q8 43 53 78q41 33 90 33q53 0 84 -51q25 -47 39 -119q16 -80 6 -127q-8 -43 -49 -78q-39 -33 -86 -33 q-68 0 -86 72q-4 20 -19.5 77.5t-23.5 90.5q-14 32 -8 57z" />
<glyph unicode="&#x201d;" horiz-adv-x="927" d="M381 1083q6 29 104 144q95 114 129 141q43 37 78 37q45 0 69.5 -35t16.5 -78q-6 -27 -92 -133q-80 -98 -115 -133q-51 -45 -98 -45t-74 29q-26 30 -18 73zM659 1092q6 27 29 51l180 203q39 45 97 45q41 0 67 -27q28 -28 19 -68q-10 -41 -93 -137q-68 -78 -120 -129 q-47 -45 -95 -45q-43 0 -67 31q-27 33 -17 76z" />
<glyph unicode="&#x2022;" horiz-adv-x="776" d="M276 573q23 111 127 201q106 90 213 90q59 0 105 -98q43 -92 31 -156q-20 -98 -117 -182q-90 -78 -197 -78q-94 0 -137 66q-45 67 -25 157z" />
<glyph unicode="&#x2026;" horiz-adv-x="1507" d="M238 102q10 49 49 80q45 35 88 35q51 0 82 -33q29 -33 20 -80q-12 -55 -55 -94q-43 -41 -98 -41q-115 0 -86 133zM641 86q12 57 65.5 98t108.5 41q53 0 88 -35q33 -33 21 -90q-12 -55 -68 -96q-53 -39 -115 -39q-49 0 -79 37q-29 35 -21 84zM1077 102q10 47 51 80 q45 35 86 35q51 0 82 -33q29 -33 21 -80q-12 -51 -57 -94q-43 -41 -97 -41q-115 0 -86 133z" />
<glyph unicode="&#x202f;" horiz-adv-x="380" />
<glyph unicode="&#x205f;" horiz-adv-x="477" />
<glyph unicode="&#x20ac;" horiz-adv-x="1423" d="M145 352q12 61 115 90q43 10 152 23q0 68 14 127q-29 -2 -82 -2q-49 0 -74 35q-27 37 -14 86q18 88 113 123q53 20 166 20q123 203 319 356q223 174 420 174q123 0 184 -84q59 -80 35 -206q-18 -84 -70 -138q-59 -61 -139 -61q-90 0 -98 61q8 88 10 136q-82 -10 -190 -88 q-86 -63 -164 -150h37q143 2 207.5 -35t48.5 -112q-12 -51 -52 -82q-37 -29 -92 -29q-14 0 -65.5 1t-85.5 1q-72 2 -150 2q-2 -6 -4 -16.5t-4 -14.5q-10 -45 -4 -77q137 10 180 10q41 0 65.5 -24.5t14.5 -69.5q-20 -100 -176 -117q66 -90 139 -90q31 0 82 28.5t84 28.5 q43 0 72 -31q27 -29 16 -73q-8 -37 -47 -72q-123 -111 -277 -111q-129 0 -237 90q-90 78 -143 205q-102 -6 -207 -6q-59 0 -84 23.5t-15 68.5z" />
<glyph unicode="&#x2122;" horiz-adv-x="2158" d="M403 1204q18 84 115 121q90 33 187 41l186 12q199 18 221 19q90 0 139 -33q51 39 115 39q141 0 180 -264q8 -41 33 -408q98 219 160 336q127 233 207 293q53 35 102 35q18 0 49 -9q68 -18 88 -63q25 -51 6 -143q-25 -119 -96 -344q-96 -293 -102 -322q-2 -8 -15 -78 q-10 -63 -14 -76q-10 -47 -47 -77q-35 -29 -82 -29q-86 0 -92 82q-3 34 18 153l27 144q-43 -72 -184 -283q-23 -86 -103 -86q-123 0 -196 445q-68 -180 -107 -361q-8 -43 -47 -76q-37 -31 -84 -30q-113 0 -82 149q14 63 76 262q57 178 74 262q14 70 30 189q-72 -27 -184 -27 l-94 -297l-113 -391q-49 -160 -147 -160q-41 0 -63.5 29t-12.5 70l96 460q10 41 25 144l30 145q-6 0 -104 -4q-25 0 -59.5 -1t-44.5 -1q-53 0 -78 41q-25 40 -13 92z" />
<glyph unicode="&#xe000;" horiz-adv-x="1420" d="M0 1420h1420v-1420h-1420v1420z" />
<glyph unicode="&#xfb01;" horiz-adv-x="1464" d="M1141 68q20 84 61 231q55 195 62 229q68 317 69 482q6 203 12 239q33 162 166 162q121 0 135 -145q1 -13 2 -29q0 -83 -28 -219l-11.5 -56.5l-9.5 -47t-6 -25.5q-31 -141 -84 -309q-76 -256 -88 -308q-45 -178 -51 -192q-53 -119 -149 -119q-45 0 -66 31q-17 24 -17 53 q1 11 3 23zM115 86q10 49 43 170q29 109 43 170q74 344 98 571q20 164 23 174q0 2 2 10.5t4 14.5q6 15 6 25q0 2 1 6t1 8t1 8t1 6q16 70 65 107q53 41 115 41q49 0 182 -11q106 -8 185 -8q4 0 28.5 1t41 1t41 1t30.5 1q257 0 258 -126q0 -15 -4 -31q-35 -158 -311 -158 q-129 0 -367 14l-65 -266q104 14 243 14q92 0 133 -22q40 -22 40 -76q0 -19 -5 -41q-20 -106 -153 -137q-119 -27 -294 -27h-34q-41 -180 -61 -243q-45 -158 -93 -230q-45 -70 -114 -69q-45 0 -70 28q-17 19 -17 50q0 11 3 24z" />
<glyph unicode="&#xfb02;" horiz-adv-x="1966" d="M1132 86l68 295l66 297q25 109 53 297q35 221 51 297q12 55 63.5 94t110.5 39q128 0 128 -148q0 -48 -13 -110q-80 -367 -244 -928l330 17q126 6 166 6q45 0 65 -27q15 -19 15 -45q0 -11 -2 -25q-18 -90 -144 -116q-37 -8 -194 -15q-51 0 -211 -26q-145 -23 -205 -23 q-51 0 -82 35q-23 25 -23 62q0 12 2 24zM115 86q10 49 43 170q29 109 43 170q74 344 98 571q20 164 23 174q0 2 2 10.5t4 14.5q6 15 6 25q0 2 1 6t1 8t1 8t1 6q16 70 65 107q53 41 115 41q49 0 182 -11q106 -8 185 -8q4 0 28.5 1t41 1t41 1t30.5 1q257 0 258 -126 q0 -15 -4 -31q-35 -158 -311 -158q-129 0 -367 14l-65 -266q104 14 243 14q92 0 133 -22q40 -22 40 -76q0 -19 -5 -41q-20 -106 -153 -137q-119 -27 -294 -27h-34q-41 -180 -61 -243q-45 -158 -93 -230q-45 -70 -114 -69q-45 0 -70 28q-17 19 -17 50q0 11 3 24z" />
<glyph unicode="&#xfb03;" horiz-adv-x="2494" d="M2171 68q20 84 61 231q55 195 62 229q68 317 69 482q6 203 12 239q33 162 166 162q121 0 135 -145q1 -13 2 -29q0 -83 -28 -219l-11.5 -56.5l-9.5 -47t-6 -25.5q-31 -141 -84 -309q-76 -256 -88 -308q-45 -178 -51 -192q-53 -119 -149 -119q-45 0 -66 31q-17 24 -17 53 q1 11 3 23zM1143 86q10 49 43 170q29 109 43 170q74 344 98 571q20 164 23 174q0 2 2 10.5t4 14.5q6 15 6 25q0 2 1 6t1 8t1 8t1 6q16 70 65 107q53 41 115 41q49 0 182 -11q106 -8 185 -8q4 0 28.5 1t41 1t41 1t30.5 1q257 0 258 -126q0 -15 -4 -31q-35 -158 -311 -158 q-129 0 -367 14l-65 -266q104 14 243 14q92 0 133 -22q40 -22 40 -76q0 -19 -5 -41q-20 -106 -153 -137q-119 -27 -294 -27h-34q-41 -180 -61 -243q-45 -158 -93 -230q-45 -70 -114 -69q-45 0 -70 28q-17 19 -17 50q0 11 3 24zM115 86q10 49 43 170q29 109 43 170 q74 344 98 571q20 164 23 174q0 2 2 10.5t4 14.5q6 15 6 25q0 2 1 6t1 8t1 8t1 6q16 70 65 107q53 41 115 41q49 0 182 -11q106 -8 185 -8q4 0 28.5 1t41 1t41 1t30.5 1q257 0 258 -126q0 -15 -4 -31q-35 -158 -311 -158q-129 0 -367 14l-65 -266q104 14 243 14 q92 0 133 -22q40 -22 40 -76q0 -19 -5 -41q-20 -106 -153 -137q-119 -27 -294 -27h-34q-41 -180 -61 -243q-45 -158 -93 -230q-45 -70 -114 -69q-45 0 -70 28q-17 19 -17 50q0 11 3 24z" />
<glyph unicode="&#xfb04;" horiz-adv-x="2996" d="M2162 86l68 295l66 297q25 109 53 297q35 221 51 297q12 55 63.5 94t110.5 39q128 0 128 -148q0 -48 -13 -110q-80 -367 -244 -928l330 17q126 6 166 6q45 0 65 -27q15 -19 15 -45q0 -11 -2 -25q-18 -90 -144 -116q-37 -8 -194 -15q-51 0 -211 -26q-145 -23 -205 -23 q-51 0 -82 35q-23 25 -23 62q0 12 2 24zM1143 86q10 49 43 170q29 109 43 170q74 344 98 571q20 164 23 174q0 2 2 10.5t4 14.5q6 15 6 25q0 2 1 6t1 8t1 8t1 6q16 70 65 107q53 41 115 41q49 0 182 -11q106 -8 185 -8q4 0 28.5 1t41 1t41 1t30.5 1q257 0 258 -126 q0 -15 -4 -31q-35 -158 -311 -158q-129 0 -367 14l-65 -266q104 14 243 14q92 0 133 -22q40 -22 40 -76q0 -19 -5 -41q-20 -106 -153 -137q-119 -27 -294 -27h-34q-41 -180 -61 -243q-45 -158 -93 -230q-45 -70 -114 -69q-45 0 -70 28q-17 19 -17 50q0 11 3 24zM115 86 q10 49 43 170q29 109 43 170q74 344 98 571q20 164 23 174q0 2 2 10.5t4 14.5q6 15 6 25q0 2 1 6t1 8t1 8t1 6q16 70 65 107q53 41 115 41q49 0 182 -11q106 -8 185 -8q4 0 28.5 1t41 1t41 1t30.5 1q257 0 258 -126q0 -15 -4 -31q-35 -158 -311 -158q-129 0 -367 14 l-65 -266q104 14 243 14q92 0 133 -22q40 -22 40 -76q0 -19 -5 -41q-20 -106 -153 -137q-119 -27 -294 -27h-34q-41 -180 -61 -243q-45 -158 -93 -230q-45 -70 -114 -69q-45 0 -70 28q-17 19 -17 50q0 11 3 24z" />
</font>
</defs>
</svg>
